<?xml version="1.0" standalone="no"?>
<!DOCTYPE svg PUBLIC "-//W3C//DTD SVG 20010904//EN"
 "http://www.w3.org/TR/2001/REC-SVG-20010904/DTD/svg10.dtd">
<svg version="1.0" xmlns="http://www.w3.org/2000/svg"
 width="150.000000pt" height="150.000000pt" viewBox="0 0 150.000000 150.000000"
 preserveAspectRatio="xMidYMid meet">

<g transform="translate(0.000000,150.000000) scale(0.100000,-0.100000)"
fill="#000000" stroke="none">
<path d="M307 1012 l-257 -257 0 -108 0 -107 260 0 260 0 0 -130 0 -130 125 0
125 0 0 235 0 235 -257 0 -258 0 260 260 260 260 -130 0 -130 0 -258 -258z"/>
<path d="M937 1263 c-9 -9 -9 -243 0 -243 4 0 63 55 130 122 l123 123 0 -130
0 -130 -130 -130 -130 -130 2 -125 3 -125 128 -3 127 -3 0 128 0 128 130 130
130 130 0 132 0 133 -253 0 c-140 0 -257 -3 -260 -7z"/>
<path d="M1322 627 c-67 -67 -122 -126 -122 -130 0 -4 56 -7 125 -7 l125 0 0
130 c0 72 -1 130 -3 130 -1 0 -57 -55 -125 -123z"/>
</g>
</svg>
